<svg width="268" height="124" viewBox="0 0 268 124" fill="none" xmlns="http://www.w3.org/2000/svg">
<path d="M189.192 116C191.402 116 193.192 117.791 193.192 120C193.192 122.209 191.402 124 189.192 124H105.192C102.983 124 101.192 122.209 101.192 120C101.192 117.791 102.983 116 105.192 116H189.192ZM140.097 30C141.547 30.0001 142.742 30.4696 143.681 31.4082C144.619 32.2615 145.089 33.4137 145.089 34.8643V95.0244C145.089 96.5602 144.619 97.7977 143.681 98.7363C142.742 99.5896 141.547 100.016 140.097 100.016C138.646 100.016 137.451 99.5895 136.513 98.7363C135.659 97.7977 135.232 96.5602 135.232 95.0244V90.6582C132.971 93.2658 130.242 95.4481 127.04 97.2002C122.518 99.5894 117.483 100.784 111.937 100.784C105.878 100.784 100.459 99.5468 95.6807 97.0723C90.902 94.5123 87.1041 90.7995 84.2881 85.9355C81.5576 81.0716 80.1924 75.1407 80.1924 68.1436V34.8643C80.1924 33.4989 80.6619 32.3469 81.6006 31.4082C82.5393 30.4695 83.6913 30 85.0566 30C86.5072 30.0001 87.702 30.4696 88.6406 31.4082C89.5791 32.3468 90.0488 33.499 90.0488 34.8643V68.1436C90.0488 73.4342 91.0295 77.7869 92.9922 81.2002C95.0402 84.6135 97.7713 87.1732 101.185 88.8799C104.683 90.5865 108.608 91.4404 112.96 91.4404C117.141 91.4404 120.897 90.6291 124.225 89.0078C127.638 87.3865 130.325 85.1675 132.288 82.3516C134.128 79.7117 135.106 76.7347 135.221 73.4199L135.232 72.752V34.8643C135.232 33.4136 135.659 32.2615 136.513 31.4082C137.451 30.4696 138.646 30 140.097 30ZM66.1768 0C67.6273 5.75914e-05 68.8221 0.469596 69.7607 1.4082C70.6993 2.26152 71.1689 3.45632 71.1689 4.99219V65.4082C70.9983 72.0641 69.334 78.0801 66.1768 83.4561C63.1048 88.7466 58.8807 92.928 53.5049 96C48.2143 99.0719 42.2408 100.608 35.585 100.608C28.8436 100.608 22.7842 99.072 17.4082 96C12.0323 92.8427 7.76568 88.5761 4.6084 83.2002C1.53647 77.8243 7.32421e-05 71.723 0 64.8965C0 58.1552 1.4938 52.0957 4.48047 46.7197C7.55246 41.3438 11.6912 37.1198 16.8965 34.0479C22.1018 30.8905 27.9899 29.3115 34.5605 29.3115C40.2779 29.3115 45.4408 30.5498 50.0488 33.0244C54.6566 35.4137 58.3687 38.6135 61.1846 42.624V4.99219C61.1846 3.45619 61.6541 2.26154 62.5928 1.4082C63.5314 0.469564 64.7261 0 66.1768 0ZM260.312 32.832C261.592 32.8321 262.659 33.259 263.513 34.1123C264.366 34.8802 264.792 35.9039 264.792 37.1836C264.792 38.3782 264.366 39.4026 263.513 40.2559C262.659 41.0238 261.592 41.4082 260.312 41.4082H245.849V75.584C245.849 79.936 247.128 83.5199 249.688 86.3359C252.248 89.0665 255.533 90.4315 259.544 90.4316H263C264.365 90.4316 265.475 90.9013 266.328 91.8398C267.181 92.7785 267.608 93.9732 267.608 95.4238C267.608 96.8745 267.096 98.0691 266.072 99.0078C265.048 99.8611 263.768 100.288 262.232 100.288H259.544C255.022 100.288 250.969 99.2211 247.385 97.0879C243.886 94.9546 241.112 92.0531 239.064 88.3838C237.017 84.6292 235.992 80.3626 235.992 75.584V41.4082H227.673C226.393 41.4082 225.326 41.0238 224.473 40.2559C223.619 39.4025 223.192 38.3783 223.192 37.1836C223.192 35.9038 223.619 34.8802 224.473 34.1123C225.326 33.259 226.393 32.832 227.673 32.832H260.312ZM208.849 30C210.299 30.0001 211.409 30.4696 212.177 31.4082C212.945 32.2615 213.286 33.3285 213.2 34.6084C213.2 35.8029 212.773 36.9552 211.92 38.0645L190.619 64.4248L212.433 92.3359C213.542 93.7011 214.011 94.9812 213.841 96.1758C213.67 97.3704 213.115 98.3095 212.177 98.9922C211.323 99.6749 210.427 100.016 209.488 100.016C208.464 100.016 207.611 99.8452 206.929 99.5039C206.331 99.1626 205.691 98.5652 205.009 97.7119L183.961 70.9463L162.257 98.4805C161.489 99.5043 160.337 100.016 158.801 100.016C157.436 100.016 156.326 99.5895 155.473 98.7363C154.705 97.883 154.278 96.8587 154.192 95.6641C154.192 94.4694 154.662 93.3173 155.601 92.208L177.716 64.5615L156.752 37.9355C155.814 36.8265 155.345 35.6748 155.345 34.4805C155.43 33.2859 155.856 32.2615 156.624 31.4082C157.392 30.4696 158.502 30.0001 159.952 30C161.403 30 162.64 30.5122 163.664 31.5361L184.334 57.9883L204.624 32.3037C205.221 31.4505 205.861 30.8531 206.544 30.5117C207.312 30.1704 208.081 30 208.849 30ZM35.585 38.2725C30.721 38.2725 26.3257 39.4236 22.4004 41.7275C18.4751 44.0315 15.3606 47.2321 13.0566 51.3281C10.7527 55.3388 9.60059 59.8618 9.60059 64.8965C9.60066 70.0162 10.7527 74.5813 13.0566 78.5918C15.3606 82.6025 18.4751 85.803 22.4004 88.1924C26.3257 90.4963 30.721 91.6484 35.585 91.6484C40.534 91.6484 44.9287 90.4963 48.7686 88.1924C52.6939 85.803 55.7657 82.6025 57.9844 78.5918C60.2883 74.5813 61.4404 70.0162 61.4404 64.8965C61.4404 59.8618 60.2884 55.3388 57.9844 51.3281C55.7657 47.2321 52.6939 44.0315 48.7686 41.7275C44.9287 39.4237 40.534 38.2725 35.585 38.2725Z" fill="#00C0E8"/>
</svg>
